<svg width="24" height="24" viewBox="0 0 24 24" fill="none" xmlns="http://www.w3.org/2000/svg">
<path fill-rule="evenodd" clip-rule="evenodd" d="M16.8618 7.68231C17.2524 7.29178 17.8855 7.29178 18.2761 7.68231L21.1045 10.5107L21.1045 10.5107C21.1899 10.5962 21.266 10.6874 21.3328 10.7832C21.5711 11.1252 21.6903 11.5251 21.6903 11.9249C21.6903 12.4368 21.495 12.9486 21.1045 13.3392L18.2761 16.1676C17.8855 16.5581 17.2524 16.5581 16.8618 16.1676C16.4713 15.7771 16.4713 15.1439 16.8618 14.7534L18.6255 12.9897L9.9919 12.9515C9.45754 12.9492 9.02498 12.5165 9.02277 11.9821C9.02053 11.4413 9.45964 11.0023 10.0005 11.0047L18.809 11.0436L16.8618 9.09652C16.4713 8.706 16.4713 8.07283 16.8618 7.68231Z" fill="white"/>
<path d="M16 3C16 3.55228 15.5523 4 15 4H4L4 20H15C15.5523 20 16 20.4477 16 21L16 21.5C16 21.7761 15.7761 22 15.5 22H3C2.44771 22 2 21.5523 2 21L2 3C2 2.44772 2.44772 2 3 2H15.5C15.7761 2 16 2.22386 16 2.5L16 3Z" fill="white"/>
</svg>
