<svg width="24" height="24" viewBox="0 0 24 24" fill="none" xmlns="http://www.w3.org/2000/svg">
<path fill-rule="evenodd" clip-rule="evenodd" d="M1 12C1 18.0751 5.92487 23 12 23C18.0751 23 23 18.0751 23 12C23 5.92487 18.0751 1 12 1C5.92487 1 1 5.92487 1 12ZM21 12C21 16.9706 16.9706 21 12 21C7.02944 21 3 16.9706 3 12C3 7.02944 7.02944 3 12 3C16.9706 3 21 7.02944 21 12Z" fill="white"/>
<path fill-rule="evenodd" clip-rule="evenodd" d="M11.5 6.5C10.9477 6.5 10.5 6.94772 10.5 7.5V8C10.5 8.55228 10.9477 9 11.5 9H12C12.5523 9 13 8.55228 13 8V7.5C13 6.94772 12.5523 6.5 12 6.5H11.5ZM11 10.5C10.4477 10.5 10 10.9477 10 11.5V11.5625C10 12.1148 10.4477 12.5625 11 12.5625V15.5H10.5C9.94772 15.5 9.5 15.9477 9.5 16.5V16.5625C9.5 17.1148 9.94772 17.5625 10.5 17.5625H13.3125C13.8648 17.5625 14.3125 17.1148 14.3125 16.5625V16.5C14.3125 15.9477 13.8648 15.5 13.3125 15.5H13V11.5C13 10.9477 12.5523 10.5 12 10.5C11.9137 10.5 11.8299 10.5109 11.75 10.5315C11.6701 10.5109 11.5863 10.5 11.5 10.5H11Z" fill="white"/>
</svg>
