<svg width="14" height="25" viewBox="0 0 14 25" fill="none" xmlns="http://www.w3.org/2000/svg">
<mask id="path-1-inside-1_1:7130" fill="white">
<path fill-rule="evenodd" clip-rule="evenodd" d="M7 0.25C5.48122 0.25 4.25 1.48122 4.25 3V11.8337C1.89277 12.8866 0.25 15.2515 0.25 18C0.25 21.7279 3.27208 24.75 7 24.75C10.7279 24.75 13.75 21.7279 13.75 18C13.75 15.2515 12.1072 12.8866 9.75 11.8337V3C9.75 1.48122 8.51878 0.25 7 0.25ZM8.25 11.3655V3C8.25 2.30964 7.69036 1.75 7 1.75C6.30964 1.75 5.75 2.30964 5.75 3V11.3655C6.15508 11.2897 6.57291 11.25 7 11.25C7.42709 11.25 7.84492 11.2897 8.25 11.3655ZM5.75 12.8997C6.15061 12.8019 6.56925 12.75 7 12.75C7.43075 12.75 7.84939 12.8019 8.25 12.8997V14C8.25 14.6904 7.69036 15.25 7 15.25C6.30964 15.25 5.75 14.6904 5.75 14V12.8997ZM4.25 13.527V14C4.25 15.5188 5.48122 16.75 7 16.75C8.51878 16.75 9.75 15.5188 9.75 14V13.527C11.25 14.4512 12.25 16.1088 12.25 18C12.25 20.8995 9.8995 23.25 7 23.25C4.10051 23.25 1.75 20.8995 1.75 18C1.75 16.1088 2.74996 14.4512 4.25 13.527Z"/>
</mask>
<path d="M4.25 11.8337L4.86173 13.2033L5.75 12.8066V11.8337H4.25ZM9.75 11.8337H8.25V12.8066L9.13827 13.2033L9.75 11.8337ZM8.25 11.3655L7.97393 12.8399L9.75 13.1724V11.3655H8.25ZM5.75 11.3655H4.25V13.1724L6.02607 12.8399L5.75 11.3655ZM5.75 12.8997L5.3941 11.4426L4.25 11.722V12.8997H5.75ZM8.25 12.8997H9.75V11.722L8.6059 11.4426L8.25 12.8997ZM4.25 13.527H5.75V10.841L3.46318 12.2499L4.25 13.527ZM9.75 13.527L10.5368 12.2499L8.25 10.841V13.527H9.75ZM5.75 3C5.75 2.30964 6.30964 1.75 7 1.75V-1.25C4.65279 -1.25 2.75 0.65279 2.75 3H5.75ZM5.75 11.8337V3H2.75V11.8337H5.75ZM1.75 18C1.75 15.8646 3.02509 14.0237 4.86173 13.2033L3.63827 10.4642C0.760441 11.7495 -1.25 14.6384 -1.25 18H1.75ZM7 23.25C4.10051 23.25 1.75 20.8995 1.75 18H-1.25C-1.25 22.5563 2.44365 26.25 7 26.25V23.25ZM12.25 18C12.25 20.8995 9.8995 23.25 7 23.25V26.25C11.5563 26.25 15.25 22.5563 15.25 18H12.25ZM9.13827 13.2033C10.9749 14.0237 12.25 15.8646 12.25 18H15.25C15.25 14.6384 13.2396 11.7495 10.3617 10.4642L9.13827 13.2033ZM8.25 3V11.8337H11.25V3H8.25ZM7 1.75C7.69036 1.75 8.25 2.30964 8.25 3H11.25C11.25 0.65279 9.34721 -1.25 7 -1.25V1.75ZM9.75 11.3655V3H6.75V11.3655H9.75ZM9.75 3C9.75 1.48122 8.51878 0.25 7 0.25V3.25C6.86193 3.25 6.75 3.13807 6.75 3H9.75ZM7 0.25C5.48122 0.25 4.25 1.48122 4.25 3H7.25C7.25 3.13807 7.13807 3.25 7 3.25V0.25ZM4.25 3V11.3655H7.25V3H4.25ZM6.02607 12.8399C6.34056 12.781 6.66598 12.75 7 12.75V9.75C6.47984 9.75 5.9696 9.79833 5.47393 9.89114L6.02607 12.8399ZM7 12.75C7.33402 12.75 7.65944 12.781 7.97393 12.8399L8.52607 9.89114C8.0304 9.79833 7.52016 9.75 7 9.75V12.75ZM7 11.25C6.44841 11.25 5.91031 11.3165 5.3941 11.4426L6.1059 14.3569C6.39092 14.2873 6.69009 14.25 7 14.25V11.25ZM8.6059 11.4426C8.08969 11.3165 7.55159 11.25 7 11.25V14.25C7.30991 14.25 7.60908 14.2873 7.8941 14.3569L8.6059 11.4426ZM9.75 14V12.8997H6.75V14H9.75ZM7 16.75C8.51878 16.75 9.75 15.5188 9.75 14H6.75C6.75 13.8619 6.86193 13.75 7 13.75V16.75ZM4.25 14C4.25 15.5188 5.48122 16.75 7 16.75V13.75C7.13807 13.75 7.25 13.8619 7.25 14H4.25ZM4.25 12.8997V14H7.25V12.8997H4.25ZM5.75 14V13.527H2.75V14H5.75ZM7 15.25C6.30964 15.25 5.75 14.6904 5.75 14H2.75C2.75 16.3472 4.65279 18.25 7 18.25V15.25ZM8.25 14C8.25 14.6904 7.69036 15.25 7 15.25V18.25C9.34721 18.25 11.25 16.3472 11.25 14H8.25ZM8.25 13.527V14H11.25V13.527H8.25ZM13.75 18C13.75 15.5668 12.4615 13.4358 10.5368 12.2499L8.96318 14.8041C10.0385 15.4666 10.75 16.6509 10.75 18H13.75ZM7 24.75C10.7279 24.75 13.75 21.7279 13.75 18H10.75C10.75 20.0711 9.07107 21.75 7 21.75V24.75ZM0.25 18C0.25 21.7279 3.27208 24.75 7 24.75V21.75C4.92893 21.75 3.25 20.0711 3.25 18H0.25ZM3.46318 12.2499C1.53847 13.4358 0.25 15.5668 0.25 18H3.25C3.25 16.6509 3.96146 15.4666 5.03682 14.8041L3.46318 12.2499Z" fill="white" mask="url(#path-1-inside-1_1:7130)"/>
<circle cx="7" cy="18" r="2.25" stroke="white" stroke-width="1.5"/>
<path d="M10 8H11.5" stroke="white" stroke-width="0.75" stroke-linecap="round"/>
<path d="M10 10H11.5" stroke="white" stroke-width="0.75" stroke-linecap="round"/>
<path d="M10 6H11.5" stroke="white" stroke-width="0.75" stroke-linecap="round"/>
<path d="M10 4H11.5" stroke="white" stroke-width="0.75" stroke-linecap="round"/>
</svg>
