<svg width="24" height="24" viewBox="0 0 24 24" fill="none" xmlns="http://www.w3.org/2000/svg">
<path fill-rule="evenodd" clip-rule="evenodd" d="M16 3.83209C19.5318 5.3752 22 8.89936 22 13C22 18.5228 17.5228 23 12 23C6.47715 23 2 18.5228 2 13C2 8.89936 4.46819 5.3752 8 3.83209L8 6.07026C5.60879 7.4535 4 10.0389 4 13C4 17.4183 7.58172 21 12 21C16.4183 21 20 17.4183 20 13C20 10.0389 18.3912 7.4535 16 6.07026L16 3.83209ZM12 13.5C11.4477 13.5 11 13.0523 11 12.5V2.5C11 1.94772 11.4477 1.5 12 1.5C12.5523 1.5 13 1.94772 13 2.5V12.5C13 13.0523 12.5523 13.5 12 13.5Z" fill="white"/>
</svg>
