<svg width="40" height="40" viewBox="0 0 40 40" fill="none" xmlns="http://www.w3.org/2000/svg">
<mask id="mask0_1:7367" style="mask-type:alpha" maskUnits="userSpaceOnUse" x="0" y="0" width="40" height="40">
<path fill-rule="evenodd" clip-rule="evenodd" d="M20 40C31.0457 40 40 31.0457 40 20C40 8.9543 31.0457 0 20 0C8.9543 0 0 8.9543 0 20C0 31.0457 8.9543 40 20 40ZM20.0002 24.6155C22.5492 24.6155 24.6155 22.5492 24.6155 20.0002C24.6155 17.4511 22.5492 15.3848 20.0002 15.3848C17.4511 15.3848 15.3848 17.4511 15.3848 20.0002C15.3848 22.5492 17.4511 24.6155 20.0002 24.6155Z" fill="white"/>
</mask>
<g mask="url(#mask0_1:7367)">
<path fill-rule="evenodd" clip-rule="evenodd" d="M22.2319 7.57695C23.3525 4.91405 21.9046 1.53845 19.0155 1.53845C15.8336 1.53845 12.8415 2.36354 10.2352 3.8147C7.46839 5.35521 6.31881 8.91962 7.58212 11.8235C7.651 11.9818 7.72081 12.1292 7.79116 12.2626C9.98366 16.4184 14.0651 19.3922 18.8695 20C18.8832 16.3397 20.6584 11.316 22.2319 7.57695ZM32.4236 22.2315C35.0865 23.3521 38.4621 21.9042 38.4621 19.0151C38.4621 15.8332 37.637 12.8411 36.1859 10.2348C34.6454 7.46797 31.0809 6.3184 28.1771 7.5817C28.0188 7.65059 27.8713 7.7204 27.738 7.79075C23.5822 9.98324 20.6084 14.0647 20.0006 18.8691C23.6609 18.8828 28.6845 20.658 32.4236 22.2315ZM20.9856 38.4615C18.0965 38.4615 16.6487 35.0859 17.7693 32.423C19.3428 28.6839 21.118 23.6603 21.1317 20C25.936 20.6077 30.0175 23.5816 32.21 27.7374C32.2804 27.8707 32.3502 28.0182 32.4191 28.1765C33.6824 31.0803 32.5328 34.6447 29.766 36.1853C27.1597 37.6364 24.1675 38.4615 20.9856 38.4615ZM7.57756 17.7685C4.91466 16.6479 1.53906 18.0957 1.53906 20.9848C1.53906 24.1667 2.36415 27.1589 3.81531 29.7652C5.35582 32.532 8.92023 33.6816 11.8241 32.4182C11.9824 32.3494 12.1299 32.2796 12.2632 32.2092C16.419 30.0167 19.3928 25.9352 20.0006 21.1308C16.3403 21.1171 11.3166 19.342 7.57756 17.7685Z" fill="white"/>
</g>
<circle cx="20.0004" cy="20" r="1.53846" fill="white"/>
</svg>
