<svg width="40" height="40" viewBox="0 0 40 40" fill="none" xmlns="http://www.w3.org/2000/svg">
<mask id="mask0_1:7383" style="mask-type:alpha" maskUnits="userSpaceOnUse" x="0" y="0" width="40" height="40">
<path fill-rule="evenodd" clip-rule="evenodd" d="M20 40C31.0457 40 40 31.0457 40 20C40 8.9543 31.0457 0 20 0C8.9543 0 0 8.9543 0 20C0 31.0457 8.9543 40 20 40ZM20 24.6154C22.549 24.6154 24.6153 22.549 24.6153 20C24.6153 17.451 22.549 15.3846 20 15.3846C17.451 15.3846 15.3846 17.451 15.3846 20C15.3846 22.549 17.451 24.6154 20 24.6154Z" fill="white"/>
</mask>
<g mask="url(#mask0_1:7383)">
<path fill-rule="evenodd" clip-rule="evenodd" d="M19.1081 4.5814C19.5361 3.14683 18.5425 1.65222 17.0498 1.53845C17.0498 1.53845 13.882 1.73559 12.3963 2.10583C12.2417 2.14435 12.0665 2.19411 11.8802 2.25086C10.3531 2.7162 9.231 4.10168 9.231 5.69814C9.231 11.6361 12.3784 16.8766 17.1755 20C16.9961 18.6074 16.9037 17.1893 16.9037 15.7507C16.9037 12.5388 18.1933 7.64711 19.1081 4.5814ZM32.9069 11.518C34.3632 11.1714 35.1608 9.56363 34.513 8.21399C34.513 8.21399 32.7584 5.56923 31.6949 4.46767C31.5842 4.35307 31.4535 4.22615 31.3112 4.09324C30.1447 3.00337 28.3838 2.72435 27.0012 3.52258C21.8588 6.49154 18.8941 11.8375 18.5877 17.5536C19.704 16.702 20.8859 15.9129 22.1318 15.1936C24.9134 13.5877 29.7945 12.2587 32.9069 11.518ZM37.4635 26.6755C36.6186 27.9114 34.8274 28.0246 33.799 26.9366C31.6014 24.6116 28.0099 21.0489 25.2283 19.4429C23.9825 18.7236 22.7082 18.0946 21.4124 17.5536C26.516 14.9609 32.6281 14.8555 37.7705 17.8244C39.153 18.6227 39.7918 20.2872 39.4313 21.8424C39.3873 22.032 39.3428 22.2087 39.2988 22.3618C38.8766 23.8336 37.4635 26.6755 37.4635 26.6755ZM20.8924 35.4186C20.4644 36.8532 21.458 38.3478 22.9507 38.4615C22.9507 38.4615 26.1185 38.2644 27.6042 37.8942C27.7588 37.8556 27.934 37.8059 28.1203 37.7491C29.6474 37.2838 30.7695 35.8983 30.7695 34.3019C30.7695 28.3639 27.6221 23.1234 22.825 20C23.0044 21.3926 23.0968 22.8107 23.0968 24.2493C23.0968 27.4612 21.8072 32.3529 20.8924 35.4186ZM5.48704 31.786C4.8392 30.4364 5.63676 28.8286 7.09316 28.482C10.2055 27.7413 15.0866 26.4123 17.8682 24.8064C19.1141 24.0871 20.296 23.298 21.4123 22.4463C21.1059 28.1625 18.1412 33.5085 12.9988 36.4774C11.6162 37.2756 9.85533 36.9966 8.68877 35.9067C8.54651 35.7738 8.41577 35.6469 8.30512 35.5323C7.24162 34.4308 5.48704 31.786 5.48704 31.786ZM6.20107 13.0634C5.17272 11.9754 3.38156 12.0886 2.53666 13.3245C2.53666 13.3245 1.12352 16.1664 0.701294 17.6381C0.657366 17.7913 0.612824 17.968 0.568852 18.1576C0.208278 19.7128 0.847089 21.3773 2.22966 22.1756C7.37206 25.1445 13.4841 25.0391 18.5877 22.4463C17.292 21.9054 16.0177 21.2764 14.7718 20.5571C11.9902 18.9511 8.39869 15.3884 6.20107 13.0634Z" fill="white"/>
</g>
<ellipse cx="20.0004" cy="20" rx="1.53846" ry="1.53846" fill="white"/>
</svg>
