<svg width="40" height="40" viewBox="0 0 40 40" fill="none" xmlns="http://www.w3.org/2000/svg">
<mask id="mask0_1:7401" style="mask-type:alpha" maskUnits="userSpaceOnUse" x="0" y="0" width="40" height="40">
<path fill-rule="evenodd" clip-rule="evenodd" d="M20 40C31.0457 40 40 31.0457 40 20C40 8.9543 31.0457 0 20 0C8.9543 0 0 8.9543 0 20C0 31.0457 8.9543 40 20 40ZM20 24.6154C22.549 24.6154 24.6154 22.549 24.6154 20C24.6154 17.451 22.549 15.3846 20 15.3846C17.451 15.3846 15.3846 17.451 15.3846 20C15.3846 22.549 17.451 24.6154 20 24.6154Z" fill="white"/>
</mask>
<g mask="url(#mask0_1:7401)">
<path fill-rule="evenodd" clip-rule="evenodd" d="M20.297 1.53845C22.3243 1.53845 24.6099 2.39383 26.7773 3.55386C29.6735 5.10388 27.6557 8.99559 24.9742 10.893C22.2709 12.8058 20.4601 15.9382 20.3074 19.5094C22.2197 16.5401 24.8914 14.3146 27.9315 12.9336C28.8657 12.5093 30.2358 12.1678 31.5654 11.9084C34.0073 11.432 36.4018 12.8165 37.2083 15.1701C37.6553 16.4745 38.0514 17.8612 38.1486 18.9019C38.4825 22.4758 37.7575 26.1656 35.8392 29.4882C34.8256 31.2439 32.942 32.7956 30.8536 34.0927C28.0632 35.8258 25.7018 32.1325 25.3993 28.8615C25.0944 25.564 23.2871 22.4296 20.2707 20.5118C21.8861 23.6525 22.4776 27.079 22.1534 30.4024C22.0538 31.4235 21.6646 32.7808 21.2244 34.062C20.4159 36.4149 18.0197 37.7964 15.5782 37.3181C14.2251 37.053 12.8261 36.7026 11.8762 36.2664C8.61414 34.7687 5.7812 32.2959 3.86287 28.9733C2.84923 27.2176 2.44721 24.8105 2.36809 22.3534C2.26236 19.0703 6.64161 18.8719 9.62553 20.2455C12.6338 21.6302 16.2519 21.6322 19.4209 19.9788C15.8933 19.8074 12.6301 18.6064 9.91408 16.664C9.07956 16.0672 8.09873 15.0514 7.20927 14.0296C5.57582 12.153 5.57755 9.38703 7.21255 7.51182C8.1187 6.47254 9.12156 5.4362 9.97428 4.83161C12.9024 2.75548 16.4603 1.53845 20.297 1.53845ZM19.9955 19.9975C19.9969 19.9999 19.9982 20.0024 19.9996 20.0049C20.0011 20.0025 20.0025 20 20.004 19.9976C20.0011 19.9976 19.9983 19.9975 19.9955 19.9975Z" fill="white"/>
</g>
<circle cx="20.0004" cy="20" r="1.53846" fill="white"/>
</svg>
