<svg width="50" height="50" viewBox="0 0 50 50" fill="none" xmlns="http://www.w3.org/2000/svg">
<circle cx="12" cy="13" r="2" stroke="white" stroke-width="4" stroke-linecap="round"/>
<circle r="2" transform="matrix(-1 0 0 1 38 13)" stroke="white" stroke-width="4" stroke-linecap="round"/>
<circle cx="25" cy="9" r="1.5" fill="white" stroke="white" stroke-width="3" stroke-linecap="round"/>
<path d="M5 36V30.5218C5 25.4207 8.2688 20.8937 13.1109 19.2889V19.2889C15.0256 18.6544 17 20.08 17 22.0971V26.7536" stroke="white" stroke-width="4" stroke-linecap="round"/>
<path d="M45 36V30.5218C45 25.4207 41.7312 20.8937 36.8891 19.2889V19.2889C34.9744 18.6544 33 20.08 33 22.0971V26.7536" stroke="white" stroke-width="4" stroke-linecap="round"/>
<path d="M21 19V17.9474C21 16.3196 22.7909 15 25 15C27.2091 15 29 16.3196 29 17.9474V19" stroke="white" stroke-width="3" stroke-linecap="round"/>
<path d="M17 42H33" stroke="white" stroke-width="4" stroke-linecap="round"/>
</svg>
