<svg width="15" height="16" viewBox="0 0 15 16" fill="none" xmlns="http://www.w3.org/2000/svg">
<path fill-rule="evenodd" clip-rule="evenodd" d="M6.90244 14C3.43712 14 0.62793 11.0153 0.62793 7.33335C0.62793 3.65146 3.43712 0.666687 6.90244 0.666687C10.3678 0.666687 13.1769 3.65146 13.1769 7.33335C13.1769 8.9342 12.6459 10.4033 11.7608 11.5525L14.0328 13.9665C14.2778 14.2269 14.2778 14.649 14.0328 14.9093C13.7877 15.1697 13.3905 15.1697 13.1454 14.9093L10.8734 12.4953C9.79176 13.4358 8.40912 14 6.90244 14ZM6.90244 12.6667C9.67469 12.6667 11.922 10.2789 11.922 7.33335C11.922 4.38784 9.67469 2.00002 6.90244 2.00002C4.13019 2.00002 1.88283 4.38784 1.88283 7.33335C1.88283 10.2789 4.13019 12.6667 6.90244 12.6667ZM5.0593 6.66669C4.69111 6.66669 4.39264 6.96516 4.39264 7.33335C4.39264 7.70154 4.69111 8.00002 5.0593 8.00002H6.27499V9.37257C6.27499 9.7191 6.55591 10 6.90244 10C7.24897 10 7.52989 9.7191 7.52989 9.37257V8.00002H8.74558C9.11377 8.00002 9.41224 7.70154 9.41224 7.33335C9.41224 6.96516 9.11377 6.66669 8.74558 6.66669H7.52989V5.29414C7.52989 4.94761 7.24897 4.66669 6.90244 4.66669C6.55591 4.66669 6.27499 4.94761 6.27499 5.29414V6.66669H5.0593Z" fill="#DEE0E3"/>
</svg>
